<svg xmlns="http://www.w3.org/2000/svg" xmlns:xlink="http://www.w3.org/1999/xlink" version="1.1" x="0px" y="0px" viewBox="0 0 100 125" enable-background="new 0 0 100 100" xml:space="preserve"><path fill="#000000" d="M51.5,15.302V9.235c0-0.829-0.672-1.5-1.5-1.5s-1.5,0.671-1.5,1.5v6.067  C20.942,16.13,20.598,39.464,20.598,39.705c0,2.633,1.233,6.473,1.286,6.635c0.2,0.619,0.776,1.038,1.427,1.038h0.926v15.485  c0,0.234,0.264,23.005,21.787,25.525c0.275,1.491,1.015,3.877,3.977,3.877c2.968,0,3.704-2.386,3.978-3.877  c21.52-2.523,21.787-25.291,21.787-25.525V47.378h0.926c0.649,0,1.227-0.419,1.427-1.038c0.053-0.162,1.286-4.002,1.286-6.635  C79.402,39.464,79.059,16.13,51.5,15.302z M52.562,85.514c-0.67,0.055-1.225,0.549-1.353,1.211  c-0.037,0.193-0.069,0.407-0.104,0.633c-0.276,1.834-0.523,1.908-1.105,1.908c-0.579,0-0.826-0.074-1.106-1.912  c-0.034-0.225-0.067-0.438-0.104-0.629c-0.128-0.662-0.682-1.156-1.353-1.211c-19.905-1.594-20.197-21.795-20.2-22.649V47.378  h45.527v15.483C72.764,63.721,72.521,83.916,52.562,85.514z M75.568,44.378h-1.305H25.736H24.43  c-0.366-1.325-0.833-3.324-0.833-4.67C23.602,38.832,23.985,18.262,50,18.262c26.016,0,26.398,20.57,26.402,21.442  C76.402,41.053,75.936,43.053,75.568,44.378z"/><path fill="#000000" d="M47.357,27.705c0-1.981-1.312-4.929-4.93-4.929c-3.615,0-4.928,2.948-4.928,4.929  c0,0.822,0.662,1.482,1.484,1.491c0.788-0.008,1.498-0.655,1.516-1.476c0.016-0.726,0.287-1.944,1.928-1.944  c1.643,0,1.914,1.218,1.93,1.929c0,0.829,0.672,1.5,1.5,1.5S47.357,28.533,47.357,27.705z"/><path fill="#000000" d="M62.5,27.705c0-1.981-1.312-4.929-4.93-4.929c-3.616,0-4.928,2.948-4.928,4.929  c0,0.822,0.662,1.482,1.483,1.491c0.005,0,0.011,0,0.017,0c0.813,0,1.481-0.66,1.5-1.476c0.016-0.726,0.287-1.944,1.928-1.944  c1.643,0,1.914,1.218,1.93,1.929c0,0.829,0.672,1.5,1.5,1.5S62.5,28.533,62.5,27.705z"/><path fill="#000000" d="M34.429,34.205c-3.616,0-4.929,2.948-4.929,4.929c0,0.822,0.662,1.482,1.484,1.491c0.005,0,0.011,0,0.016,0  c0.814,0,1.482-0.66,1.5-1.476c0.016-0.726,0.287-1.944,1.929-1.944c1.642,0,1.913,1.218,1.929,1.929c0,0.829,0.672,1.5,1.5,1.5  s1.5-0.671,1.5-1.5C39.357,37.152,38.045,34.205,34.429,34.205z"/><path fill="#000000" d="M50,34.205c-3.616,0-4.929,2.948-4.929,4.929c0,0.822,0.662,1.482,1.484,1.491c0.005,0,0.011,0,0.016,0  c0.814,0,1.482-0.66,1.5-1.476c0.016-0.726,0.287-1.944,1.929-1.944c1.643,0,1.913,1.218,1.93,1.929c0,0.829,0.672,1.5,1.5,1.5  c0.827,0,1.5-0.671,1.5-1.5C54.93,37.152,53.616,34.205,50,34.205z"/><path fill="#000000" d="M65.572,34.205c-3.616,0-4.93,2.948-4.93,4.929c0,0.822,0.662,1.482,1.484,1.491c0.005,0,0.012,0,0.016,0  c0.814,0,1.482-0.66,1.5-1.476c0.017-0.726,0.287-1.944,1.93-1.944c1.641,0,1.912,1.218,1.928,1.929c0,0.829,0.672,1.5,1.5,1.5  s1.5-0.671,1.5-1.5C70.5,37.152,69.188,34.205,65.572,34.205z"/></svg>