<svg xmlns="http://www.w3.org/2000/svg" xmlns:xlink="http://www.w3.org/1999/xlink" version="1.1" x="0px" y="0px" viewBox="0 0 100 125" style="enable-background:new 0 0 100 100;" xml:space="preserve"><path d="M63.7,30.1c-5.7-5.5-7.6-5.1-8.6-4.4c-1,0.7-1.9,2.5,1.5,9.6c2.3,4.7,5.8,10.5,10.1,16.3c0.6,0.8,14.2,19.4,19.8,19.4  c0.4,0,0.8-0.1,1.2-0.4c1-0.7,1.9-2.5-1.5-9.6c-2.3-4.7-5.8-10.5-10.1-16.3C71.9,38.9,67.5,33.7,63.7,30.1z M86.5,68.9  c-1.5,0.4-8.7-5.5-18.2-18.6c-9.6-13.2-12.9-21.9-12.1-23c0,0,0.1,0,0.2,0c1.7,0,8.8,5.9,18.1,18.6C84,59,87.3,67.7,86.5,68.9z   M78.4,43.1c-9.3-12.8-21.8-24.6-26.5-21.2c-0.2,0.1-0.5,0.4-0.5,0.4l-4,2.9c-2.1,1.5-1.8,5.5,0.8,11.9c0.3,0.8,0.7,1.7,1.1,2.5  c0,0,0-0.1-0.1-0.1c-2.7-0.2-5.5-0.3-8.3-0.3c-15.9,0-32.7,3.1-32.7,9c0,0.2,0,0.6,0,0.6v5c0,0.4,0.1,0.9,0.3,1.3l0,0  c-0.2,0.4-0.3,0.8-0.3,1.3c0,0.2,0,0.6,0,0.6v5c0,0.4,0.1,0.9,0.3,1.3c0,0,0,0,0,0c-0.2,0.4-0.3,0.8-0.3,1.3c0,0.2,0,0.6,0,0.6v5  c0,5.6,16.5,8.6,32.7,8.6c14.2,0,28.6-2.3,32-6.6c4.3,4,8.3,6.6,11,6.6c0.7,0,1.4-0.2,1.9-0.6l4-2.9c0,0,0.3-0.2,0.5-0.4  C95.1,71.4,87.7,55.9,78.4,43.1z M48.5,26.8l1.9-1.4c0,0.2,0,0.5,0,0.7L48,27.9C48.1,27.4,48.3,27,48.5,26.8z M48,29.8l2.6-1.9  c0.1,0.8,0.3,1.6,0.6,2.5l-2.7,1.9C48.3,31.3,48.1,30.5,48,29.8z M49,33.8l2.7-1.9c0.3,0.8,0.5,1.5,0.9,2.3l-2.7,1.9  C49.6,35.3,49.3,34.5,49,33.8z M66.7,62.5c-0.5-0.6-1-1.2-1.5-1.9l2.6-1.9c0.5,0.6,1,1.2,1.5,1.8L66.7,62.5z M70.3,61.7  c0.5,0.6,1.1,1.2,1.6,1.8l-2.6,1.9c-0.5-0.6-1.1-1.2-1.6-1.8L70.3,61.7z M65.3,64C65.3,64,65.3,64,65.3,64l0,1.7  c-0.7,0.2-1.5,0.4-2.4,0.6v-3.3c0.5-0.1,0.9-0.2,1.3-0.3C64.6,63.2,65,63.6,65.3,64z M64.2,59.5c-0.5-0.6-1-1.2-1.5-1.9l2.6-1.9  c0.5,0.6,1,1.3,1.5,1.9L64.2,59.5z M40.9,63.3c-17.2,0-28.4-3.3-30.4-6.1c5.1,3.4,17.8,5.2,30.4,5.2c7.7,0,15.5-0.7,21.5-2  c0,0,0,0,0,0c0.2,0.2,0.3,0.4,0.5,0.6c0,0,0,0,0,0C57.6,62.4,50.1,63.3,40.9,63.3z M61.4,63.4v3.3c-0.8,0.2-1.6,0.3-2.4,0.5v-3.3  C59.9,63.7,60.7,63.6,61.4,63.4z M57.5,64.1v3.3c-0.8,0.1-1.6,0.2-2.4,0.3v-3.3C56,64.4,56.8,64.2,57.5,64.1z M53.6,64.6v3.3  c-0.8,0.1-1.6,0.2-2.4,0.2v-3.3C52.1,64.8,52.9,64.7,53.6,64.6z M49.7,65v3.2c-0.8,0.1-1.6,0.1-2.4,0.1v-3.2  C48.2,65.1,49,65.1,49.7,65z M45.8,65.2v3.2c-0.8,0-1.6,0-2.4,0.1v-3.2C44.3,65.3,45.1,65.3,45.8,65.2z M42,65.3v3.2  c-0.3,0-0.7,0-1,0c-0.5,0-0.9,0-1.4,0v-3.2c0.5,0,0.9,0,1.4,0C41.3,65.3,41.6,65.3,42,65.3z M38.1,65.3v3.2c-0.8,0-1.6,0-2.4-0.1  v-3.2C36.5,65.2,37.3,65.3,38.1,65.3z M34.2,65.1v3.2c-0.8,0-1.6-0.1-2.4-0.1V65C32.6,65,33.4,65.1,34.2,65.1z M30.3,64.8v3.3  c-0.8-0.1-1.6-0.1-2.4-0.2v-3.3C28.7,64.7,29.5,64.8,30.3,64.8z M26.4,64.4v3.3c-0.8-0.1-1.6-0.2-2.4-0.3v-3.3  C24.7,64.2,25.5,64.3,26.4,64.4z M22.5,63.8v3.3c-0.8-0.1-1.6-0.3-2.4-0.5v-3.3C20.8,63.5,21.6,63.7,22.5,63.8z M18.6,63v3.3  c-0.9-0.2-1.7-0.4-2.4-0.7v-3.3C16.9,62.6,17.7,62.8,18.6,63z M14.7,61.9v3.3c-0.9-0.3-1.7-0.7-2.4-1v-3.3  C13,61.2,13.8,61.5,14.7,61.9z M12.3,56v-3.3c0.7,0.4,1.5,0.7,2.4,1V57C13.7,56.7,12.9,56.3,12.3,56z M16.2,57.5v-3.3  c0.8,0.2,1.6,0.5,2.4,0.7v3.3C17.7,58,16.9,57.7,16.2,57.5z M20.1,58.5v-3.3c0.8,0.2,1.6,0.3,2.4,0.5V59  C21.6,58.8,20.8,58.7,20.1,58.5z M24,59.2v-3.3c0.8,0.1,1.6,0.2,2.4,0.3v3.3C25.5,59.4,24.7,59.3,24,59.2z M27.9,59.7v-3.3  c0.8,0.1,1.6,0.2,2.4,0.2V60C29.4,59.9,28.6,59.8,27.9,59.7z M31.8,60.1v-3.2c0.8,0.1,1.6,0.1,2.4,0.2v3.2  C33.3,60.2,32.5,60.1,31.8,60.1z M35.7,60.3v-3.2c0.8,0,1.6,0.1,2.4,0.1v3.2C37.2,60.3,36.4,60.3,35.7,60.3z M39.6,60.4v-3.2  c0.5,0,0.9,0,1.4,0c0.3,0,0.7,0,1,0v3.2c-0.3,0-0.7,0-1,0C40.5,60.4,40,60.4,39.6,60.4z M43.5,60.4v-3.2c0.8,0,1.6,0,2.4-0.1v3.2  C45.1,60.3,44.3,60.3,43.5,60.4z M47.3,60.2V57c0.8,0,1.6-0.1,2.4-0.2v3.2C49,60.1,48.2,60.2,47.3,60.2z M51.2,60v-3.3  c0.8-0.1,1.6-0.2,2.4-0.2v3.3C52.9,59.8,52.1,59.9,51.2,60z M55.1,59.6v-3.3c0.8-0.1,1.6-0.2,2.4-0.3v3.3  C56.8,59.4,56,59.5,55.1,59.6z M59,59v-3.1c0.2,0.3,0.4,0.5,0.6,0.8c0.5,0.6,0.9,1.3,1.4,1.9C60.4,58.8,59.7,58.9,59,59z M61.9,56.4  c-0.2-0.3-0.4-0.5-0.6-0.8c-0.3-0.4-0.5-0.7-0.8-1.1l2.6-1.9c0.3,0.4,0.5,0.7,0.8,1.1c0.2,0.3,0.4,0.6,0.6,0.8L61.9,56.4z   M59.6,53.2c-0.5-0.7-0.9-1.3-1.3-2l2.6-1.9c0.4,0.7,0.9,1.3,1.3,2L59.6,53.2z M57.4,50c-0.4-0.7-0.9-1.4-1.3-2l2.6-1.9  c0.4,0.7,0.8,1.4,1.3,2L57.4,50z M55.3,46.7c-0.4-0.7-0.8-1.4-1.2-2.1l2.6-1.9c0.4,0.7,0.8,1.4,1.2,2.1L55.3,46.7z M55.6,50.8  c-3.9,0.5-8.8,0.8-14.7,0.8c-16.3,0-25.3-2.5-25.7-3.8c0.4-1.4,9.4-3.8,25.7-3.8c4.1,0,7.7,0.2,10.8,0.4  C52.9,46.5,54.2,48.6,55.6,50.8z M53.4,43.3c-0.4-0.7-0.8-1.4-1.1-2.1l2.6-1.9c0.4,0.7,0.7,1.4,1.1,2.1L53.4,43.3z M51.6,39.8  c-0.4-0.8-0.7-1.5-1-2.2l2.7-1.9c0.3,0.7,0.7,1.5,1,2.2L51.6,39.8z M40.9,41.2c3.3,0,6.4,0.1,9.3,0.3c-0.1-0.2,0.2,0.4,0.4,0.8  c0,0,0,0,0,0c-5-0.3-9.3-0.4-9.7-0.4c-1.1,0-27.7,0.1-27.7,5.8c0,5.7,26.6,5.8,27.7,5.8c0.6,0,8.6,0,15.9-0.9  c0.3,0.4,0.6,0.9,0.9,1.3c-4.6,0.7-10.3,1.2-16.8,1.2c-19,0-30.7-4.1-30.7-7S21.9,41.2,40.9,41.2z M10.2,51.4  c0.2,0.1,0.4,0.3,0.6,0.4v3.1c-0.4-0.4-0.6-0.8-0.6-1.1V51.4z M10.2,59.6c0.2,0.1,0.4,0.3,0.6,0.4v3.1c-0.4-0.4-0.6-0.8-0.6-1.1  V59.6z M10.8,71.2c-0.4-0.4-0.6-0.8-0.6-1.1v-2.4c0.2,0.1,0.4,0.3,0.6,0.4V71.2z M10.5,65.3c5.1,3.4,17.8,5.2,30.4,5.2  c10.4,0,20.8-1.2,27-3.5c0.1,0.1,0.2,0.3,0.4,0.4c-4.7,2.1-14.3,4.1-27.4,4.1C23.7,71.5,12.5,68.1,10.5,65.3z M14.7,73.3  c-0.9-0.3-1.7-0.7-2.4-1V69c0.7,0.4,1.5,0.7,2.4,1V73.3z M18.6,74.5c-0.9-0.2-1.7-0.4-2.4-0.7v-3.3c0.8,0.2,1.6,0.5,2.4,0.7V74.5z   M22.5,75.3c-0.8-0.1-1.6-0.3-2.4-0.5v-3.3c0.8,0.2,1.6,0.3,2.4,0.5V75.3z M26.4,75.8c-0.8-0.1-1.6-0.2-2.4-0.3v-3.3  c0.8,0.1,1.6,0.2,2.4,0.3V75.8z M30.3,76.3c-0.8-0.1-1.6-0.1-2.4-0.2v-3.3c0.8,0.1,1.6,0.2,2.4,0.2V76.3z M34.2,76.5  c-0.8,0-1.6-0.1-2.4-0.1v-3.2c0.8,0.1,1.6,0.1,2.4,0.2V76.5z M38.1,76.7c-0.8,0-1.6,0-2.4-0.1v-3.2c0.8,0,1.6,0.1,2.4,0.1V76.7z   M42,76.7c-0.3,0-0.7,0-1,0c-0.5,0-0.9,0-1.4,0v-3.2c0.5,0,0.9,0,1.4,0c0.3,0,0.7,0,1,0V76.7z M45.8,76.6c-0.8,0-1.6,0-2.4,0.1v-3.2  c0.8,0,1.6,0,2.4-0.1V76.6z M49.7,76.4c-0.8,0.1-1.6,0.1-2.4,0.1v-3.2c0.8,0,1.6-0.1,2.4-0.2V76.4z M53.6,76.1  c-0.8,0.1-1.6,0.2-2.4,0.2V73c0.8-0.1,1.6-0.2,2.4-0.2V76.1z M57.5,75.6c-0.8,0.1-1.6,0.2-2.4,0.3v-3.3c0.8-0.1,1.6-0.2,2.4-0.3  V75.6z M61.4,74.9c-0.8,0.2-1.6,0.3-2.4,0.5V72c0.8-0.1,1.6-0.3,2.4-0.5V74.9z M65.3,73.9c-0.7,0.2-1.5,0.4-2.4,0.6v-3.3  c0.8-0.2,1.6-0.4,2.4-0.6V73.9z M69.2,72.4c-0.7,0.3-1.5,0.7-2.4,1v-3.3c0.9-0.3,1.7-0.6,2.4-1V72.4z M71.4,70.7  c-0.1,0.3-0.4,0.5-0.7,0.8V70C71,70.2,71.2,70.5,71.4,70.7C71.4,70.7,71.4,70.7,71.4,70.7z M71.9,68.3c-0.5-0.6-1.1-1.1-1.7-1.7  l2.6-1.9c0.6,0.6,1.1,1.2,1.7,1.7L71.9,68.3z M73,69.4l2.7-1.9c0.6,0.6,1.2,1.1,1.8,1.7l-2.7,1.9C74.2,70.6,73.6,70,73,69.4z   M75.9,72.1l2.7-1.9c0.7,0.6,1.3,1.1,1.9,1.6l-2.7,1.9C77.2,73.2,76.6,72.7,75.9,72.1z M79.1,74.6l2.7-1.9c0.8,0.5,1.5,1,2.2,1.4  l-2.6,1.9C80.7,75.6,79.9,75.2,79.1,74.6z M84.6,76.5c-0.4,0.3-0.9,0.3-1.6,0.1l2.5-1.8c0.3,0.1,0.7,0.3,1,0.4L84.6,76.5z   M89.2,73.2c-2.4,1.7-12.5-5.3-23.7-20.7c-11.2-15.4-14.8-27.2-12.4-29c0.2-0.2,0.5-0.3,0.9-0.3c3.4,0,12.7,7.1,22.8,21  C87.9,59.7,91.5,71.5,89.2,73.2z"/></svg>