<svg xmlns="http://www.w3.org/2000/svg" xmlns:xlink="http://www.w3.org/1999/xlink" version="1.1" x="0px" y="0px" viewBox="0 0 48 75" style="enable-background:new 0 0 48 60;" xml:space="preserve"><g><g><ellipse cx="19.999" cy="30" rx="13" ry="23"/><path d="M47.999,30c0-1.704-0.1-3.373-0.283-5h0.021l-0.157-1.137c-0.01-0.073-0.026-0.143-0.037-0.215    c-0.102-0.709-0.222-1.408-0.357-2.097c-0.052-0.27-0.108-0.538-0.165-0.805c-0.117-0.54-0.245-1.072-0.382-1.598    c-0.115-0.446-0.239-0.886-0.368-1.323c-0.11-0.37-0.223-0.737-0.342-1.098c-0.201-0.61-0.418-1.206-0.647-1.797    c-0.075-0.193-0.148-0.387-0.226-0.577c-0.101-0.248-0.188-0.506-0.294-0.751L44.5,13h-0.034c-0.839-1.823-1.808-3.499-2.888-5    h0.155l-1.405-1.648c-1.925-2.259-4.068-3.917-6.346-4.98c-0.059-0.028-0.118-0.052-0.177-0.079    c-0.463-0.209-0.932-0.395-1.406-0.553c-0.22-0.074-0.441-0.144-0.664-0.208c-0.202-0.057-0.403-0.116-0.607-0.163    c-0.422-0.1-0.849-0.177-1.279-0.236c-0.127-0.017-0.255-0.03-0.383-0.044C28.982,0.036,28.494,0,28.001,0h-8    c-11.028,0-20,13.458-20,30c0,16.542,8.972,30,20,30h8c0.494,0,0.981-0.036,1.466-0.089c0.128-0.014,0.255-0.027,0.383-0.044    c0.431-0.06,0.857-0.137,1.279-0.236c0.203-0.047,0.404-0.106,0.605-0.163c0.224-0.064,0.446-0.134,0.667-0.208    c0.472-0.157,0.938-0.342,1.4-0.551c0.061-0.028,0.122-0.053,0.183-0.082c2.277-1.063,4.42-2.72,6.345-4.979L41.733,52H41.58    c1.08-1.501,2.049-3.177,2.888-5h0.034l0.261-0.602c0.106-0.244,0.193-0.502,0.293-0.75c0.08-0.194,0.154-0.392,0.23-0.589    c0.227-0.586,0.443-1.178,0.642-1.783c0.122-0.367,0.236-0.74,0.348-1.116c0.127-0.432,0.25-0.866,0.363-1.307    c0.137-0.528,0.266-1.063,0.383-1.605c0.057-0.266,0.112-0.533,0.164-0.801c0.135-0.689,0.255-1.388,0.357-2.096    c0.01-0.073,0.027-0.142,0.037-0.215l0.157-1.137h-0.021C47.899,33.373,47.999,31.704,47.999,30z M45.999,30    c0,1.707-0.104,3.376-0.293,5h-5.99c0.006-0.053,0.013-0.105,0.019-0.157c0.007-0.069,0.017-0.136,0.024-0.205    c0.07-0.672,0.121-1.352,0.16-2.038c0.01-0.164,0.018-0.328,0.025-0.492c0.032-0.697,0.055-1.399,0.055-2.108    s-0.022-1.411-0.055-2.108c-0.008-0.164-0.016-0.328-0.025-0.492c-0.039-0.685-0.09-1.366-0.16-2.038    c-0.007-0.069-0.017-0.136-0.024-0.205c-0.006-0.053-0.013-0.105-0.019-0.157h5.99C45.895,26.624,45.999,28.293,45.999,30z     M45.008,39.143c-0.457,2.048-1.067,4.008-1.828,5.857h-5.848c0.56-1.455,1.023-2.976,1.41-4.541    c0.042-0.17,0.082-0.343,0.122-0.514c0.111-0.477,0.216-0.956,0.311-1.442c0.079-0.4,0.154-0.802,0.223-1.209    c0.016-0.099,0.038-0.195,0.054-0.294h5.974c-0.114,0.686-0.247,1.363-0.394,2.031C45.024,39.068,45.016,39.106,45.008,39.143z     M45.008,20.856c0.008,0.037,0.016,0.075,0.024,0.112c0.147,0.668,0.279,1.345,0.394,2.031h-5.974    c-0.016-0.099-0.038-0.195-0.054-0.293c-0.069-0.411-0.145-0.817-0.225-1.221c-0.094-0.479-0.198-0.952-0.307-1.423    c-0.042-0.175-0.082-0.351-0.125-0.525c-0.387-1.565-0.85-3.084-1.409-4.538h5.848C43.941,16.848,44.551,18.808,45.008,20.856z     M42.288,13h-5.822c-0.002-0.003-0.003-0.006-0.005-0.01c-0.056-0.121-0.113-0.239-0.17-0.359    c-0.226-0.476-0.46-0.942-0.704-1.397c-0.038-0.071-0.074-0.145-0.113-0.215c-0.274-0.502-0.561-0.988-0.856-1.462    c-0.07-0.112-0.141-0.222-0.211-0.332C34.139,8.805,33.864,8.396,33.579,8h5.536C40.301,9.455,41.368,11.134,42.288,13z M27.999,2    c0.37,0,0.738,0.023,1.104,0.058c0.11,0.01,0.219,0.026,0.329,0.039c0.269,0.033,0.537,0.075,0.803,0.127    c0.107,0.021,0.215,0.04,0.322,0.064c0.729,0.162,1.447,0.393,2.154,0.692c0.075,0.032,0.148,0.066,0.223,0.099    c0.324,0.145,0.646,0.3,0.964,0.474c0.027,0.015,0.055,0.028,0.082,0.043C35.109,4.22,36.199,5.023,37.239,6h-5.218    c-1.486-1.678-3.094-3.017-4.792-4L27.999,2L27.999,2z M4.999,30c0-13.552,6.869-25,15-25s15,11.448,15,25s-6.869,25-15,25    S4.999,43.552,4.999,30z M27.23,58c1.697-0.983,3.305-2.322,4.791-4h5.218c-1.04,0.978-2.131,1.78-3.26,2.405    c-0.026,0.014-0.052,0.027-0.078,0.041c-0.32,0.174-0.643,0.331-0.969,0.476c-0.073,0.032-0.146,0.066-0.22,0.097    c-0.707,0.3-1.426,0.531-2.156,0.693c-0.106,0.024-0.213,0.043-0.321,0.064c-0.267,0.052-0.535,0.094-0.804,0.127    c-0.109,0.013-0.218,0.028-0.328,0.039C28.736,57.977,28.369,58,27.999,58L27.23,58L27.23,58z M39.114,52h-5.536    c0.285-0.396,0.56-0.805,0.829-1.225c0.071-0.11,0.142-0.22,0.211-0.332c0.295-0.474,0.582-0.96,0.856-1.462    c0.039-0.071,0.075-0.144,0.113-0.215c0.244-0.455,0.478-0.921,0.704-1.397c0.057-0.12,0.114-0.238,0.17-0.359    c0.001-0.003,0.003-0.006,0.005-0.01h5.822C41.368,48.866,40.301,50.545,39.114,52z"/></g></g></svg>