<svg xmlns="http://www.w3.org/2000/svg" xmlns:xlink="http://www.w3.org/1999/xlink" version="1.1" x="0px" y="0px" viewBox="0 0 100 125" style="enable-background:new 0 0 100 100;" xml:space="preserve"><path d="M82.3,48.9c-4.6-2.5-10.8-5.1-17.7-7.4c-1.1-0.4-26.3-8.7-28.2-3.3c-0.4,1.2-0.1,3.1,6.8,6.9c4.6,2.5,10.8,5.1,17.7,7.4  c6.8,2.3,13.4,3.9,18.6,4.7c2,0.3,3.6,0.4,4.9,0.4c3.6,0,4.4-1,4.7-1.8C89.5,54.7,89.2,52.7,82.3,48.9z M61.6,50.7  C46.1,45.5,38.4,40.3,38.4,39c0.2-0.3,1.1-0.5,2.6-0.5c3.9,0,11.8,1.3,23,5c15.4,5.1,23.1,10.3,23.2,11.7  C86.3,56.3,77,55.8,61.6,50.7z M86.3,48.3C81,45,73.7,41.6,65.6,38.9c-8.1-2.7-16-4.4-22.3-4.9c-4.7-0.4-10.6-0.1-11.6,3.1  c-0.1,0.2-0.2,0.6-0.2,0.6l-1.6,4.7c-0.1,0.3-0.1,0.5-0.1,0.8c-12.6,1-23.7,3.9-23.7,8.6c0,0.2,0,0.6,0,0.6v5  c0,5.6,16.5,8.6,32.7,8.6c9.8,0,19.7-1.1,26-3.2c5.7,1.6,11.1,2.6,15.6,3c1.3,0.1,2.5,0.2,3.6,0.2c4.6,0,7.3-1,7.9-3l1.6-4.7  c0,0,0.1-0.4,0.2-0.6C94.8,54.6,90.3,50.9,86.3,48.3z M37.4,51.6c1.9,1.2,4.1,2.4,6.6,3.6c0,0,0,0,0,0c-1.7,0.1-3.4,0.1-5.2,0.1  c-16.3,0-25.3-2.5-25.7-3.8c0.4-1.2,7.1-3.2,19.3-3.7c0,0,0,0,0,0C33.6,49,35.3,50.3,37.4,51.6z M36.3,48.5l1-3.1  c0.6,0.5,1.3,0.9,2.1,1.4l-1,3.1C37.6,49.4,36.9,48.9,36.3,48.5z M39.7,50.6l1-3.1c0.7,0.4,1.4,0.8,2.1,1.2l-1,3.1  C41.1,51.4,40.4,51,39.7,50.6z M46.7,54.3l1-3.1c0.7,0.3,1.5,0.7,2.2,1l-1,3.1C48.2,54.9,47.4,54.6,46.7,54.3z M45.3,53.6  c-0.7-0.4-1.5-0.7-2.2-1.1l1-3.1c0.7,0.4,1.4,0.7,2.2,1.1L45.3,53.6z M35,47.5c-0.8-0.6-1.4-1.2-1.9-1.8l1-3.1  c0.6,0.6,1.2,1.1,2,1.7L35,47.5z M31.8,43.1l0.7-2.2c0.1,0.2,0.3,0.4,0.4,0.6l-1,2.9C31.8,43.8,31.7,43.4,31.8,43.1z M30.3,45.2  C30.3,45.2,30.3,45.2,30.3,45.2c0.1,0.2,0.3,0.5,0.4,0.7c0,0,0,0,0,0C22.5,46.4,11,47.7,11,51.5c0,5.7,26.6,5.8,27.7,5.8  c0.4,0,4.4,0,9.1-0.3c1,0.4,2,0.9,3.1,1.3c0,0,0,0,0,0c-3.6,0.4-7.7,0.6-12.2,0.6c-19,0-30.7-4.1-30.7-7  C8.1,49.4,16.3,46.2,30.3,45.2z M56.2,58.1c-0.8-0.3-1.5-0.6-2.2-0.8l1-3.1c0.7,0.3,1.5,0.6,2.2,0.8L56.2,58.1z M52.5,56.7  c-0.8-0.3-1.5-0.6-2.2-0.9l1-3.1c0.7,0.3,1.5,0.6,2.2,0.9L52.5,56.7z M8.7,58.6c-0.4-0.4-0.6-0.8-0.6-1.1v-2.4  c0.2,0.1,0.4,0.3,0.6,0.4V58.6z M12.6,60.7c-0.9-0.3-1.7-0.7-2.4-1v-3.3c0.7,0.4,1.5,0.7,2.4,1V60.7z M16.5,61.9  c-0.9-0.2-1.7-0.4-2.4-0.7v-3.3c0.8,0.2,1.6,0.5,2.4,0.7V61.9z M20.4,62.7c-0.8-0.1-1.6-0.3-2.4-0.5v-3.3c0.8,0.2,1.6,0.3,2.4,0.5  V62.7z M24.3,63.2c-0.8-0.1-1.6-0.2-2.4-0.3v-3.3c0.8,0.1,1.6,0.2,2.4,0.3V63.2z M28.1,63.7c-0.8-0.1-1.6-0.1-2.4-0.2v-3.3  c0.8,0.1,1.6,0.2,2.4,0.2V63.7z M32,63.9c-0.8,0-1.6-0.1-2.4-0.1v-3.2c0.8,0.1,1.6,0.1,2.4,0.2V63.9z M35.9,64.1  c-0.8,0-1.6,0-2.4-0.1v-3.2c0.8,0,1.6,0.1,2.4,0.1V64.1z M39.8,64.1c-0.3,0-0.7,0-1,0c-0.5,0-0.9,0-1.4,0v-3.2c0.5,0,0.9,0,1.4,0  c0.3,0,0.7,0,1,0V64.1z M43.7,64c-0.8,0-1.6,0-2.4,0.1v-3.2c0.8,0,1.6,0,2.4-0.1V64z M47.6,63.8c-0.8,0.1-1.6,0.1-2.4,0.1v-3.2  c0.8,0,1.6-0.1,2.4-0.2V63.8z M51.5,63.5c-0.8,0.1-1.6,0.2-2.4,0.2v-3.3c0.8-0.1,1.6-0.2,2.4-0.2V63.5z M53,63.3V60  c0.6-0.1,1.2-0.2,1.8-0.3c0.2,0.1,0.4,0.1,0.6,0.2v3C54.7,63.1,53.9,63.2,53,63.3z M56.9,62.7v-2.2c0.4,0.1,0.9,0.3,1.3,0.5  c0.4,0.1,0.7,0.2,1.1,0.4v1C58.6,62.4,57.8,62.6,56.9,62.7z M59.9,59.3c-0.3-0.1-0.7-0.2-1-0.3c-0.4-0.1-0.9-0.3-1.3-0.4l1-3  c0.4,0.1,0.9,0.3,1.3,0.4c0.3,0.1,0.7,0.2,1,0.3L59.9,59.3z M61.1,61.9c-0.1,0-0.2,0.1-0.3,0.1v-0.2C60.9,61.8,61,61.8,61.1,61.9  C61.1,61.9,61.1,61.9,61.1,61.9z M61.3,59.8l1-3.1c0.8,0.2,1.5,0.5,2.3,0.7l-1,3.1C62.8,60.3,62.1,60,61.3,59.8z M67.3,61.5  c-0.8-0.2-1.5-0.4-2.3-0.6l1-3.1c0.8,0.2,1.6,0.4,2.3,0.6L67.3,61.5z M71.1,62.4c-0.8-0.2-1.6-0.4-2.3-0.5l1-3.1  c0.8,0.2,1.6,0.4,2.3,0.5L71.1,62.4z M75,63.2c-0.8-0.1-1.6-0.3-2.4-0.4l1-3.1c0.8,0.2,1.6,0.3,2.4,0.4L75,63.2z M78.9,63.8  c-0.8-0.1-1.6-0.2-2.4-0.3l1-3.1c0.8,0.1,1.6,0.2,2.4,0.3L78.9,63.8z M82.9,64.1c-0.7,0-1.5-0.1-2.3-0.1c-0.1,0-0.1,0-0.2,0l1-3.1  c0.2,0,0.4,0,0.6,0.1c0.6,0,1.2,0.1,1.8,0.1L82.9,64.1z M87.1,63.9c-0.7,0.1-1.6,0.2-2.6,0.2l1-3.1c0.9,0,1.7-0.1,2.6-0.2L87.1,63.9  z M90.1,62.5c-0.1,0.4-0.5,0.7-1.3,1l1-2.9c0.4-0.1,0.7-0.2,1-0.3L90.1,62.5z M91.9,57.1L91.9,57.1c-0.4,1.1-3.1,2.2-9.6,1.7  c-6.1-0.5-13.8-2.2-21.8-4.8c-18.1-6-27.8-13.6-26.9-16.3c0.3-0.9,2.3-1.9,6.7-1.9c0.9,0,1.8,0,2.9,0.1c6.1,0.5,13.8,2.2,21.8,4.8  c8,2.7,15.2,5.9,20.3,9.2C90.7,53.5,92.2,56,91.9,57.1z"/></svg>