<svg xmlns="http://www.w3.org/2000/svg" xmlns:xlink="http://www.w3.org/1999/xlink" version="1.1" x="0px" y="0px" viewBox="0 0 100 125" style="enable-background:new 0 0 100 100;" xml:space="preserve"><path d="M88.7,55.7c-4-4.8-10-10.2-16.9-15.2c-6.9-5-13.9-9.1-19.7-11.4c-4.4-1.8-10-3.3-12-0.5c-0.1,0.2-0.4,0.5-0.4,0.5l-2.9,4  c-1.3,1.9-0.2,4.9,2.4,8.6c0,0,0,0,0,0c-15.8,0-32.7,3.2-32.7,9c0,0.2,0,0.6,0,0.6v5c0,0.4,0.1,0.8,0.3,1.2c0,0,0,0,0,0  c-0.2,0.4-0.3,0.8-0.3,1.2c0,0.2,0,0.6,0,0.6v5c0,5.6,16.5,8.6,32.7,8.6c13.3,0,26.8-2,31.2-5.8c0,0,0,0,0,0  c2.6,1.4,5.1,2.7,7.4,3.6c3.5,1.5,6.3,2.2,8.4,2.2c1.6,0,2.8-0.5,3.5-1.4l2.9-4c0,0,0.2-0.3,0.4-0.5C94.9,64.3,91.7,59.4,88.7,55.7z   M38.3,34.3l1.4-1.9c0.1,0.2,0.1,0.4,0.2,0.7l-1.8,2.4C38.1,35,38.1,34.5,38.3,34.3z M40.6,34.6c0.4,0.7,0.9,1.5,1.4,2.2l-1.9,2.6  c-0.6-0.8-1-1.6-1.3-2.3L40.6,34.6z M66.6,62.6c-0.7-0.4-1.3-0.9-2-1.3l1.9-2.6c0.7,0.4,1.4,0.9,2,1.3L66.6,62.6z M69.8,60.8  c0.7,0.4,1.4,0.8,2.1,1.2L70,64.6c-0.7-0.4-1.4-0.8-2.1-1.2L69.8,60.8z M39.2,64.9c8.6,0,17.3-0.8,23.5-2.4c0.2,0.1,0.4,0.3,0.6,0.4  c-5.3,1.6-13.6,2.9-24.1,2.9c-16.8,0-27.9-3.2-30.2-5.9C14.1,63.1,26.7,64.9,39.2,64.9z M10.5,58.5v-3.3c0.7,0.4,1.5,0.7,2.4,1v3.3  C12,59.2,11.2,58.8,10.5,58.5z M14.4,60v-3.3c0.8,0.2,1.6,0.5,2.4,0.7v3.3C16,60.4,15.2,60.2,14.4,60z M18.3,61v-3.3  c0.8,0.2,1.6,0.3,2.4,0.5v3.3C19.9,61.3,19.1,61.2,18.3,61z M22.2,61.7v-3.3c0.8,0.1,1.6,0.2,2.4,0.3V62  C23.8,61.9,23,61.8,22.2,61.7z M26.1,62.2v-3.3c0.8,0.1,1.6,0.2,2.4,0.2v3.3C27.7,62.4,26.9,62.3,26.1,62.2z M30,62.6v-3.2  c0.8,0.1,1.6,0.1,2.4,0.2v3.2C31.6,62.7,30.8,62.6,30,62.6z M33.9,62.8v-3.2c0.8,0,1.6,0.1,2.4,0.1v3.2  C35.5,62.8,34.7,62.8,33.9,62.8z M37.8,62.9v-3.2c0.5,0,0.9,0,1.4,0c0.3,0,0.7,0,1,0v3.2c-0.3,0-0.7,0-1,0  C38.7,62.9,38.3,62.9,37.8,62.9z M41.7,62.9v-3.2c0.8,0,1.6,0,2.4-0.1v3.2C43.3,62.8,42.5,62.8,41.7,62.9z M45.6,62.7v-3.2  c0.8,0,1.6-0.1,2.4-0.2v3.2C47.2,62.6,46.4,62.7,45.6,62.7z M49.5,62.5v-3.3c0.8-0.1,1.6-0.2,2.4-0.2v3.3  C51.1,62.3,50.3,62.4,49.5,62.5z M57.3,58.7c0.3,0.2,0.5,0.4,0.8,0.6c0.5,0.4,1.1,0.8,1.6,1.1c0,0,0,0,0,0v0.7  c-0.8,0.2-1.6,0.3-2.4,0.5L57.3,58.7C57.3,58.7,57.3,58.7,57.3,58.7z M53.4,62.1v-3.3c0.8-0.1,1.6-0.2,2.4-0.3v3.3  C55,61.9,54.2,62,53.4,62.1z M63.3,60.5c-0.7-0.4-1.3-0.9-2-1.4l1.9-2.6c0.7,0.5,1.3,0.9,2,1.4L63.3,60.5z M60.1,58.2  c-0.3-0.2-0.6-0.4-0.9-0.6c-0.4-0.3-0.7-0.5-1.1-0.8l1.9-2.6c0.4,0.3,0.7,0.5,1.1,0.8c0.3,0.2,0.6,0.4,0.9,0.6L60.1,58.2z M57,55.9  c-0.7-0.5-1.3-1-1.9-1.5l1.9-2.6c0.6,0.5,1.2,1,1.9,1.5L57,55.9z M53.9,53.5c-0.6-0.5-1.2-1-1.8-1.5l1.9-2.6c0.6,0.5,1.2,1,1.9,1.5  L53.9,53.5z M50.9,51c-0.6-0.5-1.2-1.1-1.8-1.6l1.9-2.6c0.6,0.5,1.2,1.1,1.8,1.6L50.9,51z M50.9,53.6C50.9,53.6,50.9,53.6,50.9,53.6  c-3.3,0.3-7.3,0.5-11.7,0.5c-16.3,0-25.3-2.5-25.7-3.8c0.4-1.4,9.4-3.8,25.7-3.8c1.4,0,2.8,0,4.1,0.1c0,0,0,0,0,0  C45.5,48.8,48.1,51.2,50.9,53.6z M48,48.4c-0.6-0.6-1.2-1.1-1.7-1.7l1.9-2.6c0.6,0.6,1.1,1.1,1.7,1.7L48,48.4z M45.2,45.6  c-0.6-0.6-1.1-1.2-1.7-1.8l1.9-2.7c0.5,0.6,1.1,1.2,1.7,1.8L45.2,45.6z M42.5,42.7c-0.6-0.7-1.1-1.3-1.6-1.9l1.9-2.7  c0.4,0.6,0.9,1.1,1.3,1.7c0.1,0.1,0.1,0.2,0.2,0.3L42.5,42.7z M42.3,45.5C42.3,45.5,42.3,45.5,42.3,45.5  C42.3,45.5,42.3,45.5,42.3,45.5z M39.2,43.7c0.5,0,1,0,1.6,0c0,0,0,0,0,0c0.2,0.3,0.5,0.5,0.7,0.8c-1.3,0-2.1,0-2.3,0  c-1.1,0-27.7,0.1-27.7,5.8c0,5.7,26.6,5.8,27.7,5.8c0.6,0,7.2,0,13.9-0.7c0.5,0.4,1.1,0.8,1.6,1.3c-4.4,0.6-9.6,1-15.5,1  c-19,0-30.7-4.1-30.7-7S20.1,43.7,39.2,43.7z M8.5,53.9c0.2,0.1,0.4,0.3,0.6,0.4v3.1c-0.4-0.4-0.6-0.8-0.6-1.1V53.9z M9,65.4  c-0.4-0.4-0.6-0.8-0.6-1.1V62c0.2,0.1,0.4,0.3,0.6,0.4V65.4z M12.9,67.6c-0.9-0.3-1.7-0.7-2.4-1v-3.3c0.7,0.4,1.5,0.7,2.4,1V67.6z   M16.8,68.7c-0.9-0.2-1.7-0.4-2.4-0.7v-3.3c0.8,0.2,1.6,0.5,2.4,0.7V68.7z M20.7,69.5c-0.8-0.1-1.6-0.3-2.4-0.5v-3.3  c0.8,0.2,1.6,0.3,2.4,0.5V69.5z M24.6,70.1c-0.8-0.1-1.6-0.2-2.4-0.3v-3.3c0.8,0.1,1.6,0.2,2.4,0.3V70.1z M28.5,70.5  c-0.8-0.1-1.6-0.1-2.4-0.2V67c0.8,0.1,1.6,0.2,2.4,0.2V70.5z M32.4,70.8c-0.8,0-1.6-0.1-2.4-0.1v-3.2c0.8,0.1,1.6,0.1,2.4,0.2V70.8z   M36.3,70.9c-0.8,0-1.6,0-2.4-0.1v-3.2c0.8,0,1.6,0.1,2.4,0.1V70.9z M40.2,70.9c-0.3,0-0.7,0-1,0c-0.5,0-0.9,0-1.4,0v-3.2  c0.5,0,0.9,0,1.4,0c0.3,0,0.7,0,1,0V70.9z M44.1,70.8c-0.8,0-1.6,0-2.4,0.1v-3.2c0.8,0,1.6,0,2.4-0.1V70.8z M48,70.6  c-0.8,0.1-1.6,0.1-2.4,0.1v-3.2c0.8,0,1.6-0.1,2.4-0.2V70.6z M51.9,70.3c-0.8,0.1-1.6,0.2-2.4,0.2v-3.3c0.8-0.1,1.6-0.2,2.4-0.2  V70.3z M55.8,69.8c-0.8,0.1-1.6,0.2-2.4,0.3v-3.3c0.8-0.1,1.6-0.2,2.4-0.3V69.8z M59.7,69.1c-0.8,0.2-1.6,0.3-2.4,0.5v-3.3  c0.8-0.1,1.6-0.3,2.4-0.5V69.1z M63.6,68.1c-0.7,0.2-1.5,0.4-2.4,0.6v-3.3c0.8-0.2,1.6-0.4,2.4-0.6V68.1z M67.5,66.7  c-0.7,0.3-1.5,0.7-2.4,1v-3.3c0.1,0,0.2-0.1,0.4-0.1c0.7,0.4,1.4,0.8,2,1.2V66.7z M71.3,65.4l1.9-2.6c0.7,0.4,1.4,0.8,2.1,1.1  l-1.9,2.6C72.7,66.1,72,65.8,71.3,65.4z M77,68.2c-0.7-0.3-1.5-0.7-2.2-1l1.9-2.6c0.7,0.4,1.5,0.7,2.2,1L77,68.2z M78.5,68.9  c0,0-0.1,0-0.1-0.1l1.9-2.7c0.2,0.1,0.4,0.2,0.6,0.3c0.6,0.2,1.1,0.4,1.7,0.6l-1.9,2.7C80,69.5,79.3,69.2,78.5,68.9z M84.7,70.8  c-0.7-0.1-1.6-0.3-2.5-0.6l1.9-2.6c0.8,0.3,1.7,0.5,2.5,0.6L84.7,70.8z M88,70.4c-0.2,0.3-0.7,0.5-1.5,0.6l1.8-2.5  c0.3,0,0.6,0,0.9,0c0.1,0,0.1,0,0.2,0L88,70.4z M91.3,65.8c-0.7,0.9-3.6,1.2-9.7-1.2c-5.7-2.3-12.5-6.2-19.3-11.2  c-6.8-4.9-12.7-10.2-16.6-14.9c-4.2-5-4.8-7.9-4.2-8.8c0.3-0.4,1-0.7,2.1-0.7c1.6,0,4,0.5,7.5,1.9c5.7,2.3,12.5,6.2,19.3,11.2  S83.2,52.3,87.2,57C91.3,62,92,64.9,91.3,65.8z M70.1,42.7c-5.8-4.2-11.6-7.8-16.3-10.1c-7.1-3.4-8.9-2.5-9.6-1.5  c-3.4,4.6,18.1,20.3,19,21c5.8,4.2,11.6,7.8,16.3,10.1c3.8,1.8,6.1,2.4,7.5,2.4c1.2,0,1.8-0.4,2.1-0.9c0.7-1,1-2.9-4.4-8.6  C81.1,51.4,75.9,47,70.1,42.7z M64.4,50.5c-13.2-9.6-19-16.9-18.6-18.2c0.1-0.1,0.3-0.1,0.6-0.1c2.4,0,10.6,3.5,22.5,12.2  c13.1,9.5,19,16.8,18.6,18.2C86.2,63.4,77.6,60.1,64.4,50.5z"/></svg>