<svg xmlns="http://www.w3.org/2000/svg" xmlns:xlink="http://www.w3.org/1999/xlink" version="1.1" x="0px" y="0px" viewBox="0 0 100 125" style="enable-background:new 0 0 100 100;" xml:space="preserve"><path d="M82.7,47.6c0-3.4-5.4-5.5-10-6.7c-6.1-1.6-14.1-2.5-22.6-2.5c-15.8-0.1-32.7,2.9-32.8,8.7c0,0.2,0,0.6,0,0.6l0,5  c0,5.6,16.4,8.7,32.6,8.8c0.3,0,0.7,0,1,0c15.9,0,31.7-2.8,31.8-8.4l0-5C82.7,48.2,82.7,47.8,82.7,47.6z M49.1,40.4c0.3,0,0.6,0,1,0  c8.4,0.1,16.3,0.9,22.2,2.5c6.3,1.6,8.5,3.6,8.5,4.7c0,1.2-2.3,3.1-8.6,4.6c-5.9,1.4-13.8,2.2-22.2,2.1c-8.4-0.1-16.3-0.9-22.2-2.5  c-6.3-1.6-8.5-3.6-8.5-4.7C19.3,44.3,30.7,40.4,49.1,40.4z M52.5,56.4c0.8,0,1.6,0,2.4-0.1l0,3.2c-0.8,0-1.6,0-2.4,0L52.5,56.4z   M56.4,56.3c0.8,0,1.6-0.1,2.4-0.1l0,3.2c-0.8,0-1.6,0.1-2.4,0.1L56.4,56.3z M60.3,56c0.8-0.1,1.6-0.1,2.4-0.2l0,3.2  c-0.8,0.1-1.6,0.1-2.4,0.2L60.3,56z M64.2,55.6c0.8-0.1,1.6-0.2,2.4-0.3l0,3.3c-0.8,0.1-1.6,0.2-2.4,0.3L64.2,55.6z M68.1,55.1  c0.8-0.1,1.6-0.3,2.4-0.4l0,3.3c-0.8,0.2-1.6,0.3-2.4,0.4L68.1,55.1z M72,54.3c0.2,0,0.4-0.1,0.6-0.1c0.6-0.1,1.2-0.3,1.8-0.5l0,3.3  c-0.7,0.2-1.5,0.4-2.4,0.6L72,54.3z M75.9,53.2c0.8-0.3,1.6-0.6,2.4-0.9l0,3.2c-0.7,0.3-1.5,0.7-2.4,1L75.9,53.2z M23.7,52.7l0,3.3  c-0.9-0.3-1.7-0.7-2.4-1.1l0-3.2C22.1,52.1,22.9,52.4,23.7,52.7z M25.2,53.3c0.7,0.2,1.4,0.4,2.1,0.6c0.1,0,0.2,0.1,0.3,0.1l0,3.3  c-0.9-0.2-1.7-0.4-2.4-0.7L25.2,53.3z M29.1,54.3c0.8,0.2,1.6,0.3,2.4,0.5l0,3.3c-0.8-0.2-1.6-0.3-2.4-0.5L29.1,54.3z M33,55  c0.8,0.1,1.6,0.3,2.4,0.4l0,3.3c-0.8-0.1-1.6-0.2-2.4-0.4L33,55z M36.9,55.6c0.8,0.1,1.6,0.2,2.4,0.3l0,3.2  c-0.8-0.1-1.6-0.2-2.4-0.2L36.9,55.6z M40.8,56c0.8,0.1,1.6,0.1,2.4,0.2l0,3.2c-0.8,0-1.6-0.1-2.4-0.2L40.8,56z M44.7,56.2  c0.8,0,1.6,0.1,2.4,0.1l0,3.2c-0.8,0-1.6-0.1-2.4-0.1L44.7,56.2z M19.3,52.8l0-2.3c0.2,0.1,0.4,0.3,0.6,0.4l0,3  C19.5,53.5,19.3,53.1,19.3,52.8z M49.9,59.6c-0.5,0-0.9,0-1.4,0l0-3.2c0.5,0,0.9,0,1.4,0c0.3,0,0.6,0,0.9,0c0,0,0.1,0,0.1,0l0,3.2  C50.6,59.6,50.3,59.6,49.9,59.6z M79.8,54.6l0-3.1c0.3-0.2,0.6-0.4,0.9-0.6l0,2.3C80.7,53.7,80.4,54.1,79.8,54.6z M30.9,51.2  c5.1,1,11.9,1.5,19.1,1.6c0.1,0,0.2,0,0.5,0c3.8,0,27.2-0.2,27.3-5.6v0c0-5.7-26.6-6-27.7-6c-7.2-0.1-14,0.4-19.1,1.3  c-7.8,1.3-8.7,3.1-8.7,4.3C22.2,48,23.1,49.8,30.9,51.2z M48.8,43.2c0.4,0,0.8,0,1.2,0c16.2,0.1,25.2,2.6,25.7,4  c-0.5,1.4-9.5,3.7-25.8,3.6c-16.3-0.1-25.3-2.6-25.7-4C24.7,45.5,33.3,43.2,48.8,43.2z"/></svg>