<svg xmlns="http://www.w3.org/2000/svg" xmlns:xlink="http://www.w3.org/1999/xlink" version="1.1" x="0px" y="0px" viewBox="0 0 100 125" style="enable-background:new 0 0 100 100;" xml:space="preserve"><path d="M67.7,22.6c-1.2,0.4-2.6,1.8-1.5,9.6c0.7,5.1,2.3,11.7,4.5,18.6c2.2,6.8,4.8,13.1,7.2,17.7c3.1,5.8,5,7,6.2,7  c0.2,0,0.4,0,0.6-0.1c5.5-1.8-2.7-27.1-3.1-28.2S73.1,20.8,67.7,22.6z M84.2,73.5c-1.5-0.1-6.5-7.9-11.6-23.3  c-5-15.5-5.5-24.8-4.4-25.6c0,0,0,0,0,0c1.4,0,6.5,7.8,11.6,23.3C84.9,63.2,85.3,72.5,84.2,73.5z M89.2,68.6  c-0.4-6.2-2.1-14.2-4.8-22.3C79.5,31.3,71.3,16.2,65.8,18c-0.2,0.1-0.6,0.2-0.6,0.2l-4.8,1.5c-2.5,0.8-3.5,4.7-2.9,11.5  c0.1,1.4,0.3,2.8,0.5,4.3c-4.6-0.6-9.6-0.9-14.6-0.9c-15.9,0-32.7,3.1-32.7,9c0,0.2,0,0.6,0,0.6v5c0,0.4,0.1,0.8,0.3,1.2  c-0.2,0.4-0.3,0.8-0.3,1.2c0,0.2,0,0.6,0,0.6v5c0,0.4,0.1,0.9,0.3,1.3c0,0,0,0,0,0c-0.2,0.4-0.3,0.8-0.3,1.3c0,0.2,0,0.6,0,0.6v5  c0,0.4,0.1,0.8,0.3,1.2c0,0,0,0,0,0c-0.2,0.4-0.3,0.8-0.3,1.2c0,0.2,0,0.6,0,0.6v5c0,5.6,16.5,8.6,32.7,8.6c12.3,0,24.6-1.7,30-4.9  c0,0,0,0,0,0c2.4,3.3,4.5,4.9,6.3,4.9c0.3,0,0.6,0,0.9-0.1l4.8-1.5c0,0,0.4-0.1,0.6-0.2C89.2,79.2,89.5,73.4,89.2,68.6z M70.5,68.4  c-0.4-0.7-0.7-1.4-1.1-2.2l3.1-1c0.4,0.7,0.7,1.5,1.1,2.2L70.5,68.4z M74.3,68.7c0.4,0.7,0.8,1.5,1.2,2.1l-3.1,1  c-0.4-0.7-0.8-1.4-1.2-2.1L74.3,68.7z M43.4,57.9c7,0,14.1-0.6,19.9-1.6c0,0,0.1,0.4,0.2,0.6c-5.1,1.1-11.9,1.8-20.1,1.8  c-16.8,0-27.9-3.2-30.2-5.9C18.4,56.1,31,57.9,43.4,57.9z M14.8,51.4v-3.3c0.7,0.4,1.5,0.7,2.4,1v3.3C16.2,52.1,15.4,51.8,14.8,51.4  z M18.7,53v-3.3c0.8,0.2,1.6,0.5,2.4,0.7v3.3C20.2,53.4,19.4,53.2,18.7,53z M22.6,54v-3.3c0.8,0.2,1.6,0.3,2.4,0.5v3.3  C24.1,54.3,23.3,54.1,22.6,54z M26.5,54.7v-3.3c0.8,0.1,1.6,0.2,2.4,0.3V55C28.1,54.9,27.3,54.8,26.5,54.7z M30.4,55.2v-3.3  c0.8,0.1,1.6,0.2,2.4,0.2v3.3C32,55.4,31.2,55.3,30.4,55.2z M34.3,55.5v-3.2c0.8,0.1,1.6,0.1,2.4,0.2v3.2  C35.9,55.7,35.1,55.6,34.3,55.5z M38.2,55.8v-3.2c0.8,0,1.6,0.1,2.4,0.1v3.2C39.8,55.8,39,55.8,38.2,55.8z M42.1,55.9v-3.2  c0.5,0,0.9,0,1.4,0c0.3,0,0.7,0,1,0v3.2c-0.3,0-0.7,0-1,0C43,55.9,42.5,55.9,42.1,55.9z M46,55.8v-3.2c0.8,0,1.6,0,2.4-0.1v3.2  C47.6,55.8,46.8,55.8,46,55.8z M49.9,55.7v-3.2c0.8,0,1.6-0.1,2.4-0.2v3.2C51.5,55.6,50.7,55.7,49.9,55.7z M53.8,55.5v-3.3  c0.8-0.1,1.6-0.2,2.4-0.2v3.3C55.4,55.3,54.6,55.4,53.8,55.5z M57.7,55.1v-3.3c0.8-0.1,1.6-0.2,2.4-0.3v3.3  C59.3,54.9,58.5,55,57.7,55.1z M61.6,51.2C61.6,51.2,61.6,51.2,61.6,51.2C61.6,51.2,61.6,51.2,61.6,51.2c0.3,0.8,0.6,1.5,0.8,2.3  c0.1,0.3,0.2,0.5,0.3,0.8c-0.4,0.1-0.7,0.1-1.1,0.2V51.2z M64,58.8v3.3c-0.8,0.2-1.6,0.3-2.4,0.5v-3.3C62.4,59.1,63.2,59,64,58.8z   M60.1,59.5v3.3c-0.8,0.1-1.6,0.2-2.4,0.3v-3.3C58.5,59.7,59.3,59.6,60.1,59.5z M56.2,60v3.3c-0.8,0.1-1.6,0.2-2.4,0.2v-3.3  C54.6,60.2,55.4,60.1,56.2,60z M52.3,60.4v3.2c-0.8,0.1-1.6,0.1-2.4,0.1v-3.2C50.7,60.5,51.5,60.4,52.3,60.4z M48.4,60.6v3.2  c-0.8,0-1.6,0-2.4,0.1v-3.2C46.8,60.7,47.6,60.6,48.4,60.6z M44.5,60.7v3.2c-0.3,0-0.7,0-1,0c-0.5,0-0.9,0-1.4,0v-3.2  c0.5,0,0.9,0,1.4,0C43.8,60.7,44.1,60.7,44.5,60.7z M40.6,60.7v3.2c-0.8,0-1.6,0-2.4-0.1v-3.2C39,60.6,39.8,60.6,40.6,60.7z   M36.7,60.5v3.2c-0.8,0-1.6-0.1-2.4-0.1v-3.2C35.1,60.4,35.9,60.5,36.7,60.5z M32.8,60.2v3.3c-0.8-0.1-1.6-0.1-2.4-0.2V60  C31.2,60.1,32,60.2,32.8,60.2z M28.9,59.8v3.3c-0.8-0.1-1.6-0.2-2.4-0.3v-3.3C27.3,59.6,28.1,59.7,28.9,59.8z M25,59.2v3.3  c-0.8-0.1-1.6-0.3-2.4-0.5v-3.3C23.4,58.9,24.2,59.1,25,59.2z M21.1,58.4v3.3c-0.9-0.2-1.7-0.4-2.4-0.7v-3.3  C19.4,58,20.2,58.2,21.1,58.4z M17.2,57.2v3.3c-0.9-0.3-1.7-0.7-2.4-1v-3.3C15.5,56.6,16.3,56.9,17.2,57.2z M12.7,55  c0.2,0.1,0.4,0.3,0.6,0.4v3.1c-0.4-0.4-0.6-0.8-0.6-1.1V55z M43.4,65.9c8.3,0,16.6-0.8,22.7-2.2c0,0,0,0,0,0  c0.1,0.2,0.2,0.4,0.3,0.6c0,0,0,0,0,0c-5.3,1.5-13.2,2.5-23,2.5c-17.2,0-28.4-3.3-30.4-6.1c0,0,0,0,0,0  C18.1,64.1,30.8,65.9,43.4,65.9z M67.2,66.1c0.2,0.5,0.4,0.9,0.6,1.3v1.8c-0.7,0.2-1.5,0.4-2.4,0.6v-3.3  C66.1,66.5,66.7,66.3,67.2,66.1L67.2,66.1z M64,66.9v3.3c-0.8,0.2-1.6,0.3-2.4,0.5v-3.3C62.4,67.3,63.2,67.1,64,66.9z M60.1,67.7  v3.3c-0.8,0.1-1.6,0.2-2.4,0.3V68C58.5,67.9,59.3,67.8,60.1,67.7z M56.2,68.2v3.3c-0.8,0.1-1.6,0.2-2.4,0.2v-3.3  C54.6,68.3,55.4,68.3,56.2,68.2z M52.3,68.5v3.2c-0.8,0.1-1.6,0.1-2.4,0.1v-3.2C50.7,68.6,51.5,68.6,52.3,68.5z M48.4,68.7V72  c-0.8,0-1.6,0-2.4,0.1v-3.2C46.8,68.8,47.6,68.8,48.4,68.7z M44.5,68.8v3.2c-0.3,0-0.7,0-1,0c-0.5,0-0.9,0-1.4,0v-3.2  c0.5,0,0.9,0,1.4,0C43.8,68.8,44.1,68.8,44.5,68.8z M40.6,68.8V72c-0.8,0-1.6,0-2.4-0.1v-3.2C39,68.8,39.8,68.8,40.6,68.8z   M36.7,68.7v3.2c-0.8,0-1.6-0.1-2.4-0.1v-3.2C35.1,68.6,35.9,68.6,36.7,68.7z M32.8,68.4v3.3c-0.8-0.1-1.6-0.1-2.4-0.2v-3.3  C31.2,68.2,32,68.3,32.8,68.4z M28.9,67.9v3.3c-0.8-0.1-1.6-0.2-2.4-0.3v-3.3C27.3,67.7,28.1,67.8,28.9,67.9z M25,67.4v3.3  c-0.8-0.1-1.6-0.3-2.4-0.5v-3.3C23.4,67,24.2,67.2,25,67.4z M21.1,66.5v3.3c-0.9-0.2-1.7-0.4-2.4-0.7v-3.3  C19.4,66.1,20.2,66.3,21.1,66.5z M17.2,65.4v3.3c-0.9-0.3-1.7-0.7-2.4-1v-3.3C15.5,64.7,16.3,65.1,17.2,65.4z M12.7,63.1  c0.2,0.1,0.4,0.3,0.6,0.4v3.1c-0.4-0.4-0.6-0.8-0.6-1.1V63.1z M43.4,74.1c9.9,0,19.8-1.1,26.1-3.2c0.1,0.1,0.1,0.3,0.2,0.4  c0,0,0,0,0,0c-5,2-14.2,3.6-26.3,3.6c-16.8,0-27.9-3.2-30.2-5.9C18.4,72.3,31,74.1,43.4,74.1z M68.8,64.8c-0.3-0.7-0.6-1.5-1-2.2  l3.1-1c0.3,0.7,0.6,1.5,1,2.2L68.8,64.8z M67.3,61.2c-0.3-0.7-0.6-1.5-0.9-2.2l3.1-1c0.3,0.8,0.6,1.5,0.9,2.2L67.3,61.2z M65.9,57.6  c-0.3-0.7-0.5-1.5-0.8-2.3l3.1-1c0.3,0.8,0.5,1.5,0.8,2.3L65.9,57.6z M64.6,53.9c-0.1-0.3-0.2-0.7-0.3-1c-0.1-0.4-0.3-0.9-0.4-1.3  l3.1-1c0.1,0.4,0.3,0.9,0.4,1.3c0.1,0.3,0.2,0.7,0.3,1L64.6,53.9z M63.4,50.2c-0.2-0.8-0.5-1.5-0.7-2.3l3.1-1  c0.2,0.8,0.4,1.5,0.7,2.3L63.4,50.2z M62.4,46.4c-0.2-0.8-0.4-1.6-0.6-2.3l3.1-1c0.2,0.8,0.4,1.5,0.6,2.3L62.4,46.4z M61.4,42.6  c-0.2-0.8-0.4-1.6-0.5-2.4l3.1-1c0.2,0.8,0.3,1.6,0.5,2.4L61.4,42.6z M63.7,37.8l-3.1,1c-0.2-0.8-0.3-1.6-0.4-2.4l3.1-1  C63.4,36.2,63.5,37,63.7,37.8z M59.9,34.9c-0.1-0.8-0.2-1.6-0.3-2.4l3.1-1c0.1,0.8,0.2,1.6,0.3,2.4L59.9,34.9z M61.1,21.7l2.2-0.7  c-0.1,0.2-0.1,0.4-0.2,0.7l-2.8,0.9C60.5,22,60.8,21.8,61.1,21.7z M59.7,24.3l3-1c-0.1,0.8-0.2,1.7-0.2,2.6l-3.1,1  C59.4,25.9,59.5,25,59.7,24.3z M62.5,27.5c0,0.7,0,1.5,0.1,2.1c0,0.1,0,0.2,0,0.3l-3.1,1c-0.1-0.9-0.1-1.7-0.1-2.5L62.5,27.5z   M60.2,46C60.2,46,60.2,46,60.2,46c-4.2,0.6-9.8,1.1-16.8,1.1c-16.3,0-25.3-2.5-25.7-3.8c0.4-1.4,9.4-3.8,25.7-3.8  c6.3,0,11.4,0.4,15.5,0.9c0,0,0,0,0,0C59.2,42.2,59.7,44.1,60.2,46z M43.4,36.7c5.7,0,10.7,0.4,14.9,0.9c0,0.2,0.1,0.5,0.1,0.7  c0,0,0,0,0,0c-7-0.8-14.5-0.8-15.1-0.8c-1.1,0-27.7,0.1-27.7,5.8c0,5.7,26.6,5.8,27.7,5.8c0.7,0,9.7,0,17.3-1.1c0,0,0,0,0,0  c0.1,0.4,0.3,0.9,0.4,1.3c0,0,0,0,0,0c-4.8,0.8-10.7,1.4-17.7,1.4c-19,0-30.7-4.1-30.7-7C12.7,40.7,24.4,36.7,43.4,36.7z M12.7,46.9  c0.2,0.1,0.4,0.3,0.6,0.4v3.1c-0.4-0.4-0.6-0.8-0.6-1.1V46.9z M13.3,74.6c-0.4-0.4-0.6-0.8-0.6-1.1v-2.4c0.2,0.1,0.4,0.3,0.6,0.4  V74.6z M17.2,76.7c-0.9-0.3-1.7-0.7-2.4-1v-3.3c0.7,0.4,1.5,0.7,2.4,1V76.7z M21.1,77.9c-0.9-0.2-1.7-0.4-2.4-0.7v-3.3  c0.8,0.2,1.6,0.5,2.4,0.7V77.9z M25,78.7c-0.8-0.1-1.6-0.3-2.4-0.5v-3.3c0.8,0.2,1.6,0.3,2.4,0.5V78.7z M28.9,79.3  c-0.8-0.1-1.6-0.2-2.4-0.3v-3.3c0.8,0.1,1.6,0.2,2.4,0.3V79.3z M32.8,79.7c-0.8-0.1-1.6-0.1-2.4-0.2v-3.3c0.8,0.1,1.6,0.2,2.4,0.2  V79.7z M36.7,79.9c-0.8,0-1.6-0.1-2.4-0.1v-3.2c0.8,0.1,1.6,0.1,2.4,0.2V79.9z M40.6,80.1c-0.8,0-1.6,0-2.4-0.1v-3.2  c0.8,0,1.6,0.1,2.4,0.1V80.1z M44.5,80.1c-0.3,0-0.7,0-1,0c-0.5,0-0.9,0-1.4,0v-3.2c0.5,0,0.9,0,1.4,0c0.3,0,0.7,0,1,0V80.1z   M48.4,80c-0.8,0-1.6,0-2.4,0.1v-3.2c0.8,0,1.6,0,2.4-0.1V80z M52.3,79.8c-0.8,0.1-1.6,0.1-2.4,0.1v-3.2c0.8,0,1.6-0.1,2.4-0.2V79.8  z M56.2,79.5c-0.8,0.1-1.6,0.2-2.4,0.2v-3.3c0.8-0.1,1.6-0.2,2.4-0.2V79.5z M60.1,79c-0.8,0.1-1.6,0.2-2.4,0.3V76  c0.8-0.1,1.6-0.2,2.4-0.3V79z M64,78.3c-0.8,0.2-1.6,0.3-2.4,0.5v-3.3c0.8-0.1,1.6-0.3,2.4-0.5V78.3z M67.9,77.3  c-0.7,0.2-1.5,0.4-2.4,0.6v-3.3c0.8-0.2,1.6-0.4,2.4-0.6V77.3z M71.7,74.7v1.1c-0.7,0.3-1.5,0.7-2.4,1v-3.3c0.5-0.2,0.9-0.3,1.4-0.5  c0.3,0.5,0.5,0.9,0.8,1.4C71.6,74.5,71.7,74.6,71.7,74.7C71.7,74.7,71.7,74.7,71.7,74.7z M73.2,73.3c0,0-0.1-0.1-0.1-0.1l3.1-1  c0.1,0.2,0.2,0.4,0.3,0.6c0.3,0.5,0.7,1,1,1.5l-3.1,1C74.1,74.7,73.7,74,73.2,73.3z M75.4,76.5l3.1-1c0.5,0.7,1.1,1.4,1.7,2l-3.1,1  C76.6,78,76,77.4,75.4,76.5z M80,80.1c-0.4,0.1-0.9,0-1.5-0.4l2.9-0.9c0.3,0.2,0.6,0.5,0.8,0.7L80,80.1z M85.4,78.3  c-1.1,0.4-3.6-1.2-7.1-6.7c-3.2-5.2-6.5-12.4-9-20.4c-2.6-8-4.2-15.7-4.7-21.8c-0.4-6.5,0.7-9.2,1.8-9.6c0.1,0,0.2-0.1,0.4-0.1  c3,0,10.1,9.8,15.8,27.1c2.6,8,4.2,15.7,4.7,21.8C87.6,75.3,86.5,78,85.4,78.3z"/></svg>