<svg xmlns="http://www.w3.org/2000/svg" xmlns:xlink="http://www.w3.org/1999/xlink" version="1.1" x="0px" y="0px" viewBox="0 0 16 18" enable-background="new 0 0 100 100" xml:space="preserve"><path d="M51.029,79.588c-8.501,0-16.648-3.61-22.353-9.905c-5.409-5.968-8.169-13.686-7.774-21.729  c0.396-8.045,3.901-15.454,9.869-20.862c3.414-3.094,7.373-5.314,11.766-6.599c0.736-0.214,1.529,0.01,2.043,0.577  c0.516,0.567,0.66,1.379,0.374,2.09c-3.777,9.382-1.908,19.862,4.878,27.352c4.948,5.459,12.015,8.59,19.388,8.59  c2.494,0,4.968-0.354,7.353-1.051c0.736-0.213,1.529,0.01,2.044,0.577s0.659,1.379,0.374,2.09  c-1.711,4.246-4.309,7.968-7.721,11.062C65.711,76.814,58.523,79.588,51.029,79.588z M39.937,25.734  c-2.348,1.097-4.517,2.542-6.479,4.32c-5.177,4.691-8.217,11.117-8.56,18.095c-0.344,6.978,2.051,13.671,6.742,18.848  c4.947,5.46,12.015,8.591,19.389,8.591c6.499,0,12.732-2.405,17.553-6.774c1.961-1.776,3.611-3.791,4.934-6.019  c-1.42,0.204-2.855,0.306-4.296,0.306c-8.5,0-16.647-3.609-22.351-9.904C40.127,45.758,37.594,35.354,39.937,25.734z"/></svg>