<svg xmlns="http://www.w3.org/2000/svg" xmlns:xlink="http://www.w3.org/1999/xlink" version="1.1" x="0px" y="0px" viewBox="0 0 100 125" enable-background="new 0 0 100 100" xml:space="preserve"><g display="none"><rect x="-16.249" y="-496.34" display="inline" fill="#000000" width="1206.405" height="1215.22"/></g><g><g><polygon points="50.32,47.395 48.81,47.395 46.131,52.036 52.999,52.036   "/><path d="M48.572,61.131V94.11c0,0.983,0.797,1.78,1.78,1.78s1.78-0.797,1.78-1.78V61.131c0-0.983-0.797-1.78-1.78-1.78    S48.572,60.148,48.572,61.131z"/><path d="M41.574,69.95c-0.983,0-1.78,0.797-1.78,1.78v15.432c0,0.983,0.797,1.78,1.78,1.78s1.78-0.797,1.78-1.78V71.73    C43.354,70.747,42.557,69.95,41.574,69.95z"/><path d="M30.921,72.991v8.833c0,0.983,0.797,1.78,1.78,1.78s1.78-0.797,1.78-1.78v-8.833c0-0.983-0.797-1.78-1.78-1.78    S30.921,72.009,30.921,72.991z"/><path d="M58.867,70.357c-0.983,0-1.78,0.797-1.78,1.78v15.432c0,0.983,0.797,1.78,1.78,1.78s1.78-0.797,1.78-1.78V72.136    C60.647,71.154,59.85,70.357,58.867,70.357z"/><path d="M69.52,82.231v-8.833c0-0.983-0.797-1.78-1.78-1.78s-1.78,0.797-1.78,1.78v8.833c0,0.983,0.797,1.78,1.78,1.78    S69.52,83.214,69.52,82.231z"/><path d="M29.431,69.8c6.077,0,11.021-4.944,11.021-11.021c0-0.983-0.797-1.78-1.78-1.78s-1.78,0.797-1.78,1.78    c0,4.114-3.347,7.461-7.461,7.461c-3.095,0-5.613-2.518-5.613-5.613c0-2.28,1.854-4.134,4.134-4.134    c1.627,0,2.952,1.324,2.952,2.952c0,1.105-0.9,2.005-2.005,2.005c-0.983,0-1.78,0.797-1.78,1.78s0.797,1.78,1.78,1.78    c3.068,0,5.565-2.497,5.565-5.565c0-3.59-2.921-6.511-6.511-6.511c-4.243,0-7.694,3.451-7.694,7.694    C20.259,65.685,24.374,69.8,29.431,69.8z"/><path d="M72.047,52.934c-3.59,0-6.511,2.921-6.511,6.511c0,3.068,2.497,5.565,5.565,5.565c0.983,0,1.78-0.797,1.78-1.78    s-0.797-1.78-1.78-1.78c-1.105,0-2.005-0.9-2.005-2.005c0-1.627,1.324-2.952,2.952-2.952c2.28,0,4.134,1.854,4.134,4.134    c0,3.095-2.518,5.613-5.613,5.613c-4.114,0-7.461-3.347-7.461-7.461c0-0.983-0.797-1.78-1.78-1.78s-1.78,0.797-1.78,1.78    c0,6.077,4.944,11.021,11.021,11.021c5.058,0,9.172-4.115,9.172-9.172C79.741,56.385,76.29,52.934,72.047,52.934z"/><path d="M74.014,17.011c-0.388,0-0.785,0.057-1.182,0.178c-0.84,0.256-1.764,0.399-2.794,0.399C60.015,17.588,60.015,4.11,50,4.11    c-10.023,0-10.023,13.477-20.038,13.477c-1.031,0-1.956-0.143-2.796-0.398c-0.396-0.121-0.793-0.177-1.181-0.177    c-2.225,0-4.165,1.866-4.165,4.242v15.356H78.18V21.253C78.18,18.877,76.239,17.011,74.014,17.011z M74.316,32.746H25.684V21.254    c0-0.04,0-0.163,0.117-0.281c0.058-0.058,0.132-0.098,0.184-0.098c0.016,0,0.034,0.003,0.056,0.01    c1.234,0.375,2.553,0.566,3.921,0.566c6.949,0,10.513-4.795,13.115-8.295C45.609,9.751,47.066,7.974,50,7.974    c2.928,0,4.384,1.776,6.914,5.178c2.604,3.503,6.17,8.299,13.124,8.299c1.368,0,2.687-0.19,3.92-0.566    c0.033-0.01,0.05-0.01,0.056-0.01c0.088,0,0.301,0.132,0.301,0.378V32.746z"/><path d="M53.824,19.299c-0.586-0.586-1.535-0.586-2.121,0L50,21.002l-1.703-1.703c-0.586-0.586-1.535-0.586-2.121,0    c-0.586,0.585-0.586,1.536,0,2.121l1.703,1.703l-1.703,1.703c-0.586,0.585-0.586,1.536,0,2.121    c0.293,0.293,0.677,0.439,1.061,0.439s0.768-0.146,1.061-0.439L50,25.244l1.703,1.703c0.293,0.293,0.677,0.439,1.061,0.439    s0.768-0.146,1.061-0.439c0.586-0.585,0.586-1.536,0-2.121l-1.703-1.703l1.703-1.703C54.41,20.835,54.41,19.885,53.824,19.299z"/><path d="M37.294,36.783c-4.652,0-8.437,3.785-8.437,8.437s3.785,8.438,8.437,8.438s8.438-3.785,8.438-8.438    S41.946,36.783,37.294,36.783z M37.294,50.098c-2.689,0-4.877-2.188-4.877-4.878s2.188-4.877,4.877-4.877s4.878,2.188,4.878,4.877    S39.983,50.098,37.294,50.098z"/><path d="M71.143,45.22c0-4.652-3.785-8.437-8.437-8.437s-8.438,3.785-8.438,8.437s3.785,8.438,8.438,8.438    S71.143,49.872,71.143,45.22z M57.828,45.22c0-2.689,2.188-4.877,4.878-4.877s4.877,2.188,4.877,4.877s-2.188,4.878-4.877,4.878    S57.828,47.909,57.828,45.22z"/></g></g></svg>