<svg xmlns="http://www.w3.org/2000/svg" viewBox="0 0 64 80" x="0px" y="0px"><title>squirrel, animal, mammals, cute</title><g data-name="24"><path d="M34.5,36h-5a9.5,9.5,0,0,0,0,19h5a9.5,9.5,0,0,0,0-19Zm0,17h-5a7.5,7.5,0,0,1,0-15h5a7.5,7.5,0,0,1,0,15Z"/><path d="M34.59,40H29.41A2,2,0,0,0,28,43.41L30.59,46a2,2,0,0,0,.41.31V48H30a1,1,0,0,0,0,2v1a1,1,0,0,0,2,0,1,1,0,0,0,2,0V50a1,1,0,0,0,0-2H33V46.31a2,2,0,0,0,.41-.31L36,43.41A2,2,0,0,0,34.59,40ZM32,44.59,29.4,42h5.18Z"/><path d="M49.13,5.16A2.53,2.53,0,0,0,46.25,6.3l-4,6.69a13.86,13.86,0,0,0-5.11-1H26.88a13.86,13.86,0,0,0-5.11,1l-4-6.69A2.56,2.56,0,0,0,13,7.62V25.88l.08,2.65a5.94,5.94,0,0,0-.08,1,5.8,5.8,0,0,0,.15,1.26L13.47,41a18.54,18.54,0,0,0,37.06,0l.32-10.29A5.8,5.8,0,0,0,51,29.5a6,6,0,0,0-.08-1L51,26V7.62A2.53,2.53,0,0,0,49.13,5.16ZM15,18.72V7.62a.53.53,0,0,1,.41-.54l.17,0a.51.51,0,0,1,.46.27l3.92,6.51-.07.05a13.75,13.75,0,0,0-1.33.89l-.09.06a13.84,13.84,0,0,0-1.19,1l-.17.16a14,14,0,0,0-1,1.14l-.16.21a14,14,0,0,0-.86,1.25Zm.09,10c.22-1,.84-1.73,1.41-1.73S18,28,18,29.5,17.21,32,16.5,32c-.53,0-1.1-.57-1.36-1.47ZM32,57A16.47,16.47,0,0,1,15.47,41l-.23-7.28a2.88,2.88,0,0,0,1.26.3c2,0,3.5-2,3.5-4.5S18.46,25,16.5,25a2.9,2.9,0,0,0-1.48.42c0-.13,0-.26,0-.39a11.78,11.78,0,0,1,.24-1.67A11.85,11.85,0,0,1,26.88,14H37.12A11.85,11.85,0,0,1,49,25.42,2.9,2.9,0,0,0,47.5,25c-2,0-3.5,2-3.5,4.5S45.54,34,47.5,34a2.88,2.88,0,0,0,1.26-.3L48.53,41A16.47,16.47,0,0,1,32,57ZM48.86,30.53C48.6,31.43,48,32,47.5,32c-.71,0-1.5-1-1.5-2.5s.79-2.5,1.5-2.5,1.2.68,1.41,1.73ZM48.09,17.4l-.17-.22a14,14,0,0,0-1-1.13l-.18-.17a13.86,13.86,0,0,0-1.18-1l-.1-.07a13.78,13.78,0,0,0-1.31-.88l-.08-.05L48,7.33a.56.56,0,0,1,1,.29v11.1l-.05-.08A14,14,0,0,0,48.09,17.4Z"/></g></svg>