<svg xmlns="http://www.w3.org/2000/svg" xmlns:xlink="http://www.w3.org/1999/xlink" version="1.1" x="0px" y="0px" viewBox="0 0 16 18" enable-background="new 0 0 100 100" xml:space="preserve"><g><path d="M53,84.795v10.19c0,1.657-1.343,3-3,3s-3-1.343-3-3v-10.19c0-1.657,1.343-3,3-3S53,83.138,53,84.795z M50,18.175   c1.657,0,3-1.343,3-3V5.015c0-1.657-1.343-3-3-3s-3,1.343-3,3v10.16C47,16.832,48.343,18.175,50,18.175z M76.729,72.492   c-1.172-1.17-3.072-1.169-4.243,0.003c-1.17,1.172-1.169,3.072,0.003,4.243l7.2,7.19c0.585,0.584,1.353,0.877,2.12,0.877   c0.769,0,1.537-0.293,2.123-0.88c1.17-1.172,1.169-3.072-0.003-4.243L76.729,72.492z M23.249,27.496   c0.585,0.586,1.354,0.879,2.121,0.879s1.536-0.293,2.121-0.879c1.172-1.171,1.172-3.071,0-4.242l-7.18-7.18   c-1.171-1.172-3.071-1.172-4.242,0c-1.172,1.171-1.172,3.071,0,4.242L23.249,27.496z M94.98,47.005H84.81c-1.657,0-3,1.343-3,3   s1.343,3,3,3h10.17c1.657,0,3-1.343,3-3S96.637,47.005,94.98,47.005z M18.19,50.005c0-1.657-1.343-3-3-3H5.02c-1.657,0-3,1.343-3,3   s1.343,3,3,3h10.17C16.847,53.005,18.19,51.662,18.19,50.005z M74.63,28.375c0.768,0,1.536-0.293,2.121-0.879l7.18-7.18   c1.172-1.171,1.172-3.071,0-4.242c-1.171-1.172-3.071-1.172-4.242,0l-7.18,7.18c-1.172,1.171-1.172,3.071,0,4.242   C73.094,28.082,73.862,28.375,74.63,28.375z M23.271,72.492l-7.2,7.19c-1.172,1.171-1.174,3.07-0.003,4.243   c0.586,0.587,1.354,0.88,2.123,0.88c0.767,0,1.534-0.292,2.12-0.877l7.2-7.19c1.172-1.171,1.174-3.07,0.003-4.243   C26.342,71.323,24.442,71.322,23.271,72.492z M77.03,50c0,14.904-12.125,27.03-27.03,27.03S22.97,64.904,22.97,50   S35.096,22.97,50,22.97S77.03,35.096,77.03,50z M71.03,50c0-11.596-9.434-21.03-21.03-21.03S28.97,38.404,28.97,50   S38.404,71.03,50,71.03S71.03,61.596,71.03,50z"/></g></svg>